:SAMPLES-PER-SECOND 30
:FRAME-RANGE 1-744
:FULLY-SPECIFIED
:DEGREES
326
root  -13.1298 37.8351 74.4648 -1.72392 4.19745 3.92845
RightUpLeg  -23.6164 5.36024 -9.49086
RightLeg  58.1276 -2.26984 -4.38853
RightFoot  -11.9612 -0.069734 2.09473
RightToes  -5.28216e-011 1.2921e-014 -6.02303e-014
Spine  -2.18004 2.45436 3.31111
Spine1  7.20404 3.45844 -6.63246
HEad  14.4679 57.4527 -7.22265
LeftShoulder1  0.311875 2.17758 -21.535
LeftArm  -7.56573 11.316 -52.3662
LeftForeArm  28.7284 -1.05419 -10.9601
LeftHand  -0.0356687 4.86158 2.58105
RightShoulder  2.11258 3.34626 25.75
RightArm  -19.9635 0.404845 50.339
RightForeArm  51.3843 -1.28374 7.41297
RightHand  0.221853 -7.39121 -14.0986
LeftUpLeg  -12.3819 -17.7921 -11.9553
LeftLeg  26.6649 10.1068 5.83551
LeftFoot  -8.79681 -0.0510755 4.6823
LeftToes  -9.4837e-011 -7.11147e-011 -1.07582e-011
327
root  -13.3866 37.9703 75.5835 -1.63768 7.61253 3.72612
RightUpLeg  -24.2369 8.20928 -11.7799
RightLeg  47.6404 -4.35558 -5.42084
RightFoot  -11.7343 -0.0692306 3.01568
RightToes  -5.28216e-011 1.2921e-014 -6.02303e-014
Spine  -2.41386 2.17553 3.657
Spine1  6.97317 3.19754 -6.19306
HEad  13.2126 56.2204 -8.62309
LeftShoulder1  0.379985 1.92472 -21.39
LeftArm  -7.81794 10.9732 -51.6608
LeftForeArm  28.3407 -1.44707 -10.8227
LeftHand  -0.040865 4.68444 3.00363
RightShoulder  2.08167 3.27618 25.6105
RightArm  -18.8455 1.15308 50.4439
RightForeArm  49.6518 1.06872 8.18601
RightHand  0.204399 -7.26907 -13.9339
LeftUpLeg  -9.83032 -18.3683 -11.868
LeftLeg  25.7966 8.04223 4.57475
LeftFoot  -10.2989 0.0139114 5.2817
LeftToes  -9.4837e-011 -7.11147e-011 -1.07582e-011
328
root  -13.6082 38.0626 76.7225 -1.34052 10.9711 3.8145
RightUpLeg  -23.7605 12.0985 -15.3463
RightLeg  35.4251 -4.80073 -3.90692
RightFoot  -11.2522 -0.0786058 2.94278
RightToes  -5.28216e-011 1.2921e-014 -6.02303e-014
Spine  -2.92087 1.94413 4.22124
Spine1  6.87797 3.07841 -6.17749
HEad  12.3857 54.5983 -9.62885
LeftShoulder1  0.41999 1.76878 -21.1861
LeftArm  -7.43523 10.6599 -50.2479
LeftForeArm  27.9879 -2.00412 -10.8574
LeftHand  -0.0454401 4.31589 2.63151
RightShoulder  2.06987 3.26125 25.4971
RightArm  -17.8241 2.21792 50.6491
RightForeArm  48.1105 3.38049 8.85781
RightHand  0.185585 -7.14253 -13.696
LeftUpLeg  -7.47219 -19.7979 -11.9863
LeftLeg  24.8721 6.44646 3.61423
LeftFoot  -11.6589 0.0840197 5.00395
LeftToes  -9.4837e-011 -7.11147e-011 -1.07582e-011
329
root  -13.8461 38.033 77.9306 -0.818314 13.9574 4.52138
RightUpLeg  -22.9826 16.0859 -20.0602
RightLeg  23.5714 -1.44784 -0.902838
RightFoot  -11.8982 -0.0666111 2.89358
RightToes  -5.28216e-011 1.2921e-014 -6.02303e-014
Spine  -3.77714 2.01098 4.29103
Spine1  6.91024 3.3224 -6.59236
HEad  12.4459 52.5057 -9.54338
LeftShoulder1  0.500094 1.4501 -20.7817
LeftArm  -7.22823 10.3992 -48.7057
LeftForeArm  27.8031 -2.38327 -10.8402
LeftHand  -0.0473242 4.29057 2.29963
RightShoulder  2.04989 3.25999 25.1836
RightArm  -17.0539 3.22478 51.0857
RightForeArm  46.2657 5.70969 9.26178
RightHand  0.163093 -7.00615 -13.2554
LeftUpLeg  -5.49289 -19.8655 -12.3529
LeftLeg  24.5248 4.07482 2.42885
LeftFoot  -13.48 0.176674 5.11858
LeftToes  -9.4837e-011 -7.11147e-011 -1.07582e-011
330
root  -14.0766 37.9222 79.1514 -0.37677 17.1473 5.24797
RightUpLeg  -21.7648 15.7074 -23.4022
RightLeg  14.5923 3.80568 0.934791
RightFoot  -12.9457 -0.0350377 3.7664
RightToes  -5.28216e-011 1.2921e-014 -6.02303e-014
Spine  -4.48075 1.94469 4.44836
Spine1  6.80188 3.38883 -7.04433
HEad  12.9508 50.6761 -9.42605
LeftShoulder1  0.495955 1.46087 -20.7102
LeftArm  -6.67122 9.95551 -46.4168
LeftForeArm  27.3747 -2.81738 -10.9158
LeftHand  -0.0441244 4.19694 2.26838
RightShoulder  2.06457 3.34776 24.9846
RightArm  -14.9322 4.55849 51.5315
RightForeArm  42.9853 7.96997 9.47405
RightHand  0.166076 -7.06321 -13.042
LeftUpLeg  -3.63293 -20.4651 -12.6543
LeftLeg  24.7429 1.91354 1.32408
LeftFoot  -15.3213 0.278066 5.34742
LeftToes  -9.4837e-011 -7.11147e-011 -1.07582e-011
331
root  -14.3379 37.7758 80.3499 0.098175 20.2272 5.69183
RightUpLeg  -19.5358 2.95078 -20.648
RightLeg  8.31429 17.0057 -0.860689
RightFoot  -13.7305 0.115083 9.97576
RightToes  -5.28216e-011 1.2921e-014 -6.02303e-014
Spine  -5.10537 1.9264 4.77282
Spine1  6.69987 3.39436 -7.20096
HEad  13.7564 49.0508 -9.3693
LeftShoulder1  0.5111 1.39755 -20.6046
LeftArm  -6.24225 9.71206 -43.9433
LeftForeArm  26.0209 -3.55946 -10.9383
LeftHand  -0.0452425 4.25401 2.057
RightShoulder  2.031 3.2539 24.9109
RightArm  -12.3404 6.48284 52.2442
RightForeArm  39.8039 9.69011 9.47521
RightHand  0.183762 -7.19621 -13.2248
LeftUpLeg  -2.22147 -21.8177 -12.5521
LeftLeg  25.5531 0.48068 0.610203
LeftFoot  -17.1891 0.393226 5.67026
LeftToes  -9.4837e-011 -7.11147e-011 -1.07582e-011
332
root  -14.6959 37.5711 81.5782 0.238449 22.3005 5.49693
RightUpLeg  -19.1272 -2.55961 -19.1045
RightLeg  7.21177 17.4123 -1.1682
RightFoot  -13.9517 0.158992 11.115
RightToes  -5.28216e-011 1.2921e-014 -6.02303e-014
Spine  -5.06331 2.30196 5.61281
Spine1  6.21412 3.74582 -7.36698
HEad  14.672 47.7659 -9.33321
LeftShoulder1  0.474518 1.52946 -20.5301
LeftArm  -6.56586 9.58957 -41.714
LeftForeArm  24.1842 -4.15711 -10.7189
LeftHand  -0.0431348 4.62672 2.6001
RightShoulder  2.05351 3.36021 24.7492
RightArm  -10.4503 8.74568 53.2666
RightForeArm  36.8353 10.5467 9.4686
RightHand  0.225953 -7.44812 -13.9598
LeftUpLeg  -1.27279 -22.3221 -11.4426
LeftLeg  27.2093 -1.02705 -0.212812
LeftFoot  -19.4788 0.486166 5.18448
LeftToes  -9.4837e-011 -7.11147e-011 -1.07582e-011
333
root  -15.1188 37.3754 82.8583 0.0984192 23.946 5.10498
RightUpLeg  -19.2531 0.438537 -19.3183
RightLeg  10.4984 9.14674 -0.101894
RightFoot  -13.3902 0.0688423 8.9254
RightToes  -5.28216e-011 1.2921e-014 -6.02303e-014
Spine  -5.06544 2.72618 6.18685
Spine1  6.33278 4.12104 -7.34881
HEad  14.4496 46.6621 -9.73856
LeftShoulder1  0.469871 1.49989 -19.7853
LeftArm  -7.6449 10.2719 -40.0583
LeftForeArm  21.294 -5.50297 -10.2214
LeftHand  -0.0403742 4.59036 2.6692
RightShoulder  2.10478 3.59618 24.4276
RightArm  -8.66388 11.3972 55.1203
RightForeArm  36.0513 11.2692 9.39434
RightHand  0.3116 -8.02938 -14.6586
LeftUpLeg  0.19335 -22.7676 -10.0272
LeftLeg  28.2705 -2.17105 -0.904997
LeftFoot  -21.6759 0.564696 4.80008
LeftToes  -9.4837e-011 -7.11147e-011 -1.07582e-011
334
root  -15.598 37.17 84.2044 0.265503 25.9373 4.86292
RightUpLeg  -19.435 5.81162 -20.0632
RightLeg  13.7167 6.22579 0.930637
RightFoot  -11.4136 -0.0682673 15.2544
RightToes  -5.28216e-011 1.2921e-014 -6.02303e-014
Spine  -5.39315 2.91251 5.99617
Spine1  6.43833 4.21924 -7.02101
HEad  13.7224 45.8792 -10.0876
LeftShoulder1  0.477958 1.44292 -19.3965
LeftArm  -7.77361 10.921 -37.5995
LeftForeArm  17.2765 -7.32192 -9.80303
LeftHand  -0.0398789 4.40627 2.34019
RightShoulder  2.23032 4.02222 24.3739
RightArm  -6.06226 14.2618 56.9125
RightForeArm  36.0547 12.1142 9.29618
RightHand  0.336432 -8.16145 -14.9864
LeftUpLeg  1.51963 -23.3455 -8.29553
LeftLeg  28.8759 -3.80955 -1.91465
LeftFoot  -23.6823 0.595602 4.1895
LeftToes  -9.4837e-011 -7.11147e-011 -1.07582e-011
335
root  -16.0905 37.1042 85.4594 0.0222015 28.6574 3.35951
RightUpLeg  -20.1554 6.35111 -18.0397
RightLeg  17.767 5.60653 1.8061
RightFoot  -7.27457 -0.692912 17.9747
RightToes  -5.28216e-011 1.2921e-014 -6.02303e-014
Spine  -4.77672 2.87164 7.39132
Spine1  5.33535 4.09345 -7.02297
HEad  13.2128 45.1366 -10.5842
LeftShoulder1  0.459508 1.53469 -19.7062
LeftArm  -7.78075 10.5283 -34.8665
LeftForeArm  13.8316 -8.34874 -9.50674
LeftHand  -0.0370643 4.28594 2.36034
RightShoulder  2.24234 4.01891 24.5616
RightArm  -3.50399 16.837 58.7991
RightForeArm  35.1186 12.7473 9.2528
RightHand  0.35634 -8.20423 -15.5406
LeftUpLeg  1.849 -24.4376 -4.97478
LeftLeg  30.161 -5.76623 -3.25637
LeftFoot  -24.5274 0.492857 2.98736
LeftToes  -9.4837e-011 -7.11147e-011 -1.07582e-011
336
root  -16.5888 37.0435 86.7039 -0.473495 31.1935 1.89609
RightUpLeg  -20.68 2.92968 -14.8664
RightLeg  22.6183 6.36768 2.69789
RightFoot  -7.38488 -0.655344 17.3844
RightToes  -5.28216e-011 1.2921e-014 -6.02303e-014
Spine  -4.48782 3.12474 8.13987
Spine1  5.28012 4.23989 -6.77897
HEad  12.648 44.0454 -11.3123
LeftShoulder1  0.53931 1.22691 -19.7022
LeftArm  -8.94699 9.61011 -34.2236
LeftForeArm  9.78777 -8.32614 -9.25495
LeftHand  -0.0348449 4.74652 3.03207
RightShoulder  2.28774 4.25487 24.1917
RightArm  -1.78664 19.1458 60.2049
RightForeArm  33.1678 13.4091 9.04412
RightHand  0.349077 -8.1131 -15.7294
LeftUpLeg  1.10575 -25.8232 -1.87833
LeftLeg  33.534 -6.88764 -4.52815
LeftFoot  -24.0525 0.197715 0.477899
LeftToes  -9.4837e-011 -7.11147e-011 -1.07582e-011
337
root  -17.0488 37.2193 87.8124 -0.77121 34.5913 0.888702
RightUpLeg  -19.7833 0.815057 -12.3509
RightLeg  24.3391 5.0345 2.2702
RightFoot  -6.07584 -0.705076 14.3596
RightToes  -5.28216e-011 1.2921e-014 -6.02303e-014
Spine  -4.51224 3.09681 8.34195
Spine1  5.86007 4.06069 -5.63631
HEad  12.1452 42.7385 -11.0871
LeftShoulder1  0.649831 0.717457 -18.8022
LeftArm  -10.7857 9.08275 -35.0562
LeftForeArm  5.8131 -8.48735 -8.77293
LeftHand  -0.035853 4.88185 3.07572
RightShoulder  2.38079 4.68357 23.7144
RightArm  -0.586471 21.0086 61.4536
RightForeArm  31.7144 14.2398 8.61648
RightHand  0.319673 -8.00534 -15.1136
LeftUpLeg  -0.580282 -26.6794 0.970142
LeftLeg  36.8741 -7.37816 -5.53724
LeftFoot  -20.7389 -0.0918767 -2.63078
LeftToes  -9.4837e-011 -7.11147e-011 -1.07582e-011
